inDegrees=no
num_controls=7
num_derivatives=13
num_iterations=121
num_multipliers=7
num_parameters=0
num_slacks=7
num_states=26
objective=0.497144
objective_accelerations=0.042355
objective_balance=0.003514
objective_effort=0.039758
objective_height=0.405692
objective_ligament=0.005825
solver_duration=1334.571546
status=Solve_Succeeded
success=true
DataType=double
version=3
OpenSimVersion=4.5
endheader
time	/jointset/ground_pelvis/pelvis_tilt/value	/jointset/ground_pelvis/pelvis_tx/value	/jointset/ground_pelvis/pelvis_ty/value	/jointset/hip_r/hip_flexion_r/value	/jointset/hip_r/hip_adduction_r/value	/jointset/hip_r/hip_rotation_r/value	/jointset/back/lumbar_extension/value	/jointset/patellofemoral_r/patellar_flexion_r/value	/jointset/knee_r/knee_flexion_r/value	/jointset/knee_r/knee_adduction_r/value	/jointset/knee_r/knee_rotation_r/value	/jointset/ankle_r/ankle_angle_r/value	/jointset/subtalar_r/subtalar_angle_r/value	/jointset/ground_pelvis/pelvis_tilt/speed	/jointset/ground_pelvis/pelvis_tx/speed	/jointset/ground_pelvis/pelvis_ty/speed	/jointset/hip_r/hip_flexion_r/speed	/jointset/hip_r/hip_adduction_r/speed	/jointset/hip_r/hip_rotation_r/speed	/jointset/back/lumbar_extension/speed	/jointset/patellofemoral_r/patellar_flexion_r/speed	/jointset/knee_r/knee_flexion_r/speed	/jointset/knee_r/knee_adduction_r/speed	/jointset/knee_r/knee_rotation_r/speed	/jointset/ankle_r/ankle_angle_r/speed	/jointset/subtalar_r/subtalar_angle_r/speed	/forceset/tau_hip_flexion_r	/forceset/tau_hip_adduction_r	/forceset/tau_hip_rotation_r	/forceset/tau_knee_flexion_r	/forceset/tau_ankle_angle_r	/forceset/tau_subtalar_angle_r	/forceset/tau_lumbar_extension	lambda_cid13_p0	lambda_cid14_p0	lambda_cid14_p1	lambda_cid14_p2	lambda_cid14_p3	lambda_cid14_p4	lambda_cid14_p5	/jointset/ground_pelvis/pelvis_tilt/accel	/jointset/ground_pelvis/pelvis_tx/accel	/jointset/ground_pelvis/pelvis_ty/accel	/jointset/hip_r/hip_flexion_r/accel	/jointset/hip_r/hip_adduction_r/accel	/jointset/hip_r/hip_rotation_r/accel	/jointset/back/lumbar_extension/accel	/jointset/patellofemoral_r/patellar_flexion_r/accel	/jointset/knee_r/knee_flexion_r/accel	/jointset/knee_r/knee_adduction_r/accel	/jointset/knee_r/knee_rotation_r/accel	/jointset/ankle_r/ankle_angle_r/accel	/jointset/subtalar_r/subtalar_angle_r/accel	gamma_cid13_p0	gamma_cid14_p0	gamma_cid14_p1	gamma_cid14_p2	gamma_cid14_p3	gamma_cid14_p4	gamma_cid14_p5
1	-0.254642912718529	0.01227098002874031	0.6956106193301775	1.318599080127412	-0.2476369775126662	0.01115283051413906	-0.436310882274717	1.306855984465033	1.306855984465138	0.02733404592813778	0.174526883415727	0.4363192252354171	0.08251852246230634	-0.0003166507867843919	0.004071990116057574	0.0145932294361164	-0.03975676718988481	0.001090917578814053	-0.01706684628856651	0.002702049946480546	-0.04702602892645676	-0.04702602892645929	-0.005887071663307774	-0.0001243579495030004	-0.008403599632400484	-0.0007061364479364794	-0.2512988180056205	0.02164099746804277	0.01906571531526842	-0.487966303815953	-0.0107544388742451	-0.0002840223390039509	0.2805009067172456	-0.04766706798961114	-52.29052056847899	-10.05126400352207	2.944477647922649	17.05173771533925	-793.2942847884214	56.78271645805049	1.200674346051291	0.1012334097643586	1.60657759312059	-5.012190213213573	0.01445502331730495	-1.122306754333396	0.2204764181282677	-5.003127679684375	-5.003127679684385	0.2120517242691795	0.004496002786687483	-1.415255324105905	-0.4493840270015155	6.045879167706139e-10	-3.790210541625954e-09	6.689172568809894e-09	4.406879384162193e-09	8.270030255939108e-09	-4.576892916550753e-09	3.843590122783621e-09
1.01	-0.2545872437842285	0.01231682666330017	0.6958367143867138	1.317952204989283	-0.2476252432274877	0.01092655710540647	-0.4362706793456518	1.306135676531052	1.306135676531542	0.02728607349606932	0.1745255052455728	0.4361644645438258	0.08248917071379448	0.01139793529950504	0.005106669014009068	0.03062291934654122	-0.08958197303514945	0.001256547887742491	-0.02818544071940448	0.005478554317172576	-0.09705306642904662	-0.09705306642905237	-0.003700169385382389	-0.0001503607734463958	-0.02255031847213869	-0.005162998955716379	-0.2520535479261518	0.02181622441366577	0.01906227820446242	-0.4872979200078958	-0.01154241828630968	-0.000201006637679043	0.2812544263897329	-0.0485834515473608	-52.55566650981671	-10.05540748684162	2.938024368894098	17.11203380503872	-793.6589193590595	56.72655600875478	1.148975914908964	0.1059859921938853	1.600733649965731	-4.962242345617083	0.01771013094271236	-1.106277460898526	0.3272402139799306	-5.005118298772119	-5.005118298772606	0.2230982754980073	-0.006008657271688729	-1.414648242557274	-0.4436513155280807	1.141339556102462e-09	-2.719294006614713e-09	1.880326245916819e-08	7.060773581836966e-09	5.179189723828766e-09	-8.269476797293302e-09	1.796059174347097e-08
1.02	-0.254416003954068	0.01237330025931627	0.6962230201343468	1.316808166477612	-0.2476118340199671	0.01058916941767775	-0.436198510819388	1.304914572919399	1.304914572920278	0.02726018784596818	0.174523895000725	0.4358681830481044	0.08241528754963259	0.0227975283854431	0.006197382407304486	0.04663536765545531	-0.139189441897781	0.001425902047153051	-0.03928970208782374	0.009095169385474422	-0.1471851644606697	-0.1471851644606796	-0.001469715269705669	-0.0001707728888626371	-0.03670776045785638	-0.009612419577970698	-0.2528082778466926	0.02199145135929275	0.01905884109366574	-0.4866295361998395	-0.01233039769837231	-0.0001179909363469078	0.2820079460622104	-0.0504822680824112	-52.8314564278685	-10.05905685523754	2.928799279403478	17.19314371911775	-794.1949084408928	56.68000719641872	1.13767574598099	0.1124403088331706	1.603129272818446	-4.968642816686974	0.01519979341372058	-1.119440141849663	0.3884985576501959	-5.024139785491018	-5.024139785491212	0.2207620918194508	0.005614144492135669	-1.417399953301758	-0.4478956498963989	1.430060491032393e-09	-2.415531611236434e-09	2.752191850784124e-08	1.105373738958622e-08	4.130988113527099e-09	-1.022200184830031e-08	2.603608629979529e-08
1.03	-0.2541322442023336	0.01244100057843679	0.6967692893435276	1.315169162708983	-0.2475966960640882	0.01014085094868107	-0.4360860176902565	1.303191795181929	1.303191795182156	0.0272568001452229	0.1745220961425119	0.4354303409611253	0.08229701228049989	0.03390877805764431	0.007355981835778727	0.06260773830286763	-0.1885695725350274	0.00160439148223495	-0.05036724514252613	0.013543221237943	-0.1973705264671515	-0.1973705264671589	0.0007966058397178781	-0.0001903478200941111	-0.05085574691866956	-0.01403424364502678	-0.2532829904903192	0.02210293104626998	0.01906742248068236	-0.4856390677970113	-0.01287484300823773	-4.731218142262972e-05	0.2825442514458951	-0.05388431880262939	-52.99840217724548	-10.04369025668978	2.910470146976272	17.16547778922151	-794.2538769740491	56.62660007589913	1.091003665940577	0.1195654372760435	1.592678135952239	-4.916436888564855	0.01958255400091985	-1.100900913326278	0.4939232185334667	-5.015756268266139	-5.015756268265632	0.2302354983550714	-0.005940613308314588	-1.412763158380239	-0.4380595657563642	1.7162505004072e-09	-2.119597319323802e-09	3.620592727241546e-08	1.506036517294849e-08	3.103629757529614e-09	-1.215677119696307e-08	3.404993282485057e-08
1.04	-0.2537387411362579	0.01252068602732639	0.6974749596942325	1.313037609893717	-0.2475796914067687	0.009581959143927935	-0.4359248510987014	1.300967159452386	1.300967159451962	0.02727620933114273	0.1745200620747128	0.4348511659763554	0.08213477201456755	0.04474619125388243	0.008594408361122	0.07851559596026372	-0.2376992512251283	0.00179924233513482	-0.06140436923905842	0.01882986186994257	-0.2475567628752087	-0.2475567628752128	0.003089662063191642	-0.000217814806426058	-0.06497434001584801	-0.01840541893792915	-0.253757703133944	0.02221441073325137	0.01907600386770231	-0.4846485993941831	-0.01341928831810228	2.336657350894674e-05	0.2830805568295809	-0.05953982944674385	-53.17599022884848	-10.02770508652562	2.889207539858916	17.15766696502256	-794.4846742231359	56.58337127279435	1.082908450788342	0.1284057282070034	1.590226674815205	-4.918552427257872	0.01847207697730581	-1.11135635021565	0.5562163135563736	-5.024314665806094	-5.024314665806149	0.2261091146294986	0.004035733472060894	-1.411521280574765	-0.4377658950656586	2.092300561396447e-09	-1.802394821473463e-09	4.405949470850638e-08	1.851874709947172e-08	2.075745957035473e-09	-1.440088340000628e-08	4.160384592947284e-08
1.05	-0.2532381540411265	0.01261315629019495	0.6983393249504711	1.310416055536463	-0.2475606529689328	0.008912915126767009	-0.4357068037813523	1.298240740780142	1.298240740779522	0.02731868361306279	0.1745177376920306	0.4341309162580184	0.08192907871624916	0.05533046414986601	0.009913108459145279	0.09434019173094423	-0.2865621827886869	0.002012571727855256	-0.07239402728015018	0.02490547487996489	-0.2977184225710064	-0.2977184225709995	0.005409825007795891	-0.0002489775399337637	-0.07907398753420229	-0.02272244037448881	-0.2538537282365326	0.0222684728079786	0.01909639264330748	-0.4834005294529867	-0.01373443648073534	7.540982563303661e-05	0.283293658604584	-0.06840897085337586	-53.25231255009412	-9.998170955535315	2.861316882253846	17.10025155559851	-794.2368496838315	56.53278239623324	1.040072965719642	0.1356219868475665	1.575983141025761	-4.862747442900921	0.02338759179725006	-1.091211521188702	0.6521147866837202	-5.01080976912535	-5.010809769123651	0.2356698226273686	-0.006972315812938938	-1.408946202891698	-0.4270392715385734	2.471158748998645e-09	-1.484527692187572e-09	5.188711085308221e-08	2.195999634296874e-08	1.04784573640081e-09	-1.665466256724887e-08	4.914338611470659e-08
1.06	-0.2526329469656929	0.01271921752129329	0.6993614175869829	1.307307355079173	-0.2475393563928932	0.008134286331167993	-0.4354242241355111	1.295012961881408	1.295012961880592	0.02738449951208128	0.1745150456742036	0.4332697181214121	0.08168054140284786	0.0656701873145018	0.01131260200707919	0.1100610720148757	-0.3351284712320874	0.00225086997568738	-0.08332132492655205	0.03173632756832971	-0.3478288081731539	-0.3478288081731358	0.007757985482458828	-0.0002913418354710626	-0.09316402366959367	-0.0269742219545468	-0.2539497533391192	0.0223225348827097	0.01911678141890698	-0.4821524595117903	-0.01404958464336756	0.0001274530777640893	0.2835067603795883	-0.08167106256846549	-53.33920091281089	-9.967806621439607	2.830232534348899	17.061265122578	-794.1602152687483	56.49324403831921	1.033998504518754	0.1445644181891579	1.569483577465402	-4.859223803226236	0.02346584799963421	-1.098884271277681	0.7072642492248573	-5.014059847076053	-5.014059847076084	0.2317086206412411	0.001795421066162944	-1.409599003982134	-0.424717923765325	2.846152116237855e-09	-1.271670972069078e-09	5.650587625585075e-08	2.500215584931096e-08	4.814084924485246e-10	-1.854189390307488e-08	5.342053537321117e-08
